<?xml version="1.0" standalone="no"?><!DOCTYPE svg PUBLIC "-//W3C//DTD SVG 1.1//EN" "http://www.w3.org/Graphics/SVG/1.1/DTD/svg11.dtd"><svg t="1682040482037" class="icon" viewBox="0 0 1185 1024" version="1.1" xmlns="http://www.w3.org/2000/svg" p-id="4257" xmlns:xlink="http://www.w3.org/1999/xlink" width="231.4453125" height="200"><path d="M487.834 865.448a117.866 117.866 0 0 0 98.797 53.604c41.302 0 77.707-21.342 98.797-53.604h71.556c-26.74 70.928-94.654 117.878-170.478 117.878s-143.614-46.95-170.479-117.878h71.807z m98.797-846.24c33.77 0 65.154 17.7 82.603 46.573 17.45 28.873 18.454 64.902 2.762 94.78 118.13 36.406 203.871 146.375 203.871 276.431v242.034l94.278 78.586c13.809 11.55 18.956 30.505 12.805 47.453a42.839 42.839 0 0 1-40.298 28.245H230.61c-18.077 0-34.146-11.298-40.297-28.245s-1.004-35.904 12.805-47.453l94.278-78.586V436.992c0-130.056 85.866-240.025 203.996-276.431-15.692-29.878-14.688-65.781 2.762-94.654 17.45-29 48.708-46.7 82.477-46.7z m0 192.823c-124.28 0-224.96 100.68-224.96 224.961V697.48a24.853 24.853 0 0 1-9.04 19.207l-62.893 52.474h593.787l-63.02-52.474c-5.649-4.645-8.913-11.675-8.913-19.082V436.992c0-124.281-100.805-224.961-224.96-224.961z m0-128.55c-17.7 0-32.137 14.437-32.137 32.138 0 17.7 14.437 32.137 32.137 32.137 17.701 0 32.138-14.436 32.138-32.137 0-17.7-14.437-32.137-32.138-32.137z m0 0" p-id="4258"></path></svg>